<mxfile host="app.diagrams.net" modified="2024-04-19T08:54:29.154Z" agent="Mozilla/5.0 (Macintosh; Intel Mac OS X 10_15_7) AppleWebKit/537.36 (KHTML, like Gecko) Chrome/123.0.0.0 Safari/537.36" version="24.2.5" etag="980cM8J2qyvfJuN8HgEE" type="github">
  <diagram name="페이지-1" id="-4RmhjD8xsu9o9WnDLWw">
    <mxGraphModel>
      <root>
        <mxCell id="0" />
        <mxCell id="1" parent="0" />
      </root>
    </mxGraphModel>
  </diagram>
</mxfile>
